<svg width="25" height="24" viewBox="0 0 25 24" fill="none" xmlns="http://www.w3.org/2000/svg">
<path d="M22.6667 10.75C23.0767 10.75 23.4167 10.41 23.4167 10V9C23.4167 4.59 22.0767 3.25 17.6667 3.25H11.4167V5.5C11.4167 5.91 11.0767 6.25 10.6667 6.25C10.2567 6.25 9.91675 5.91 9.91675 5.5V3.25H7.66675C3.25675 3.25 1.91675 4.59 1.91675 9V9.5C1.91675 9.91 2.25675 10.25 2.66675 10.25C3.62675 10.25 4.41675 11.04 4.41675 12C4.41675 12.96 3.62675 13.75 2.66675 13.75C2.25675 13.75 1.91675 14.09 1.91675 14.5V15C1.91675 19.41 3.25675 20.75 7.66675 20.75H9.91675V18.5C9.91675 18.09 10.2567 17.75 10.6667 17.75C11.0767 17.75 11.4167 18.09 11.4167 18.5V20.75H17.6667C22.0767 20.75 23.4167 19.41 23.4167 15C23.4167 14.59 23.0767 14.25 22.6667 14.25C21.7067 14.25 20.9167 13.46 20.9167 12.5C20.9167 11.54 21.7067 10.75 22.6667 10.75ZM11.4167 14.17C11.4167 14.58 11.0767 14.92 10.6667 14.92C10.2567 14.92 9.91675 14.58 9.91675 14.17V9.83C9.91675 9.42 10.2567 9.08 10.6667 9.08C11.0767 9.08 11.4167 9.42 11.4167 9.83V14.17Z" fill="#1C31A5"/>
</svg>
