<svg width="19" height="20" viewBox="0 0 19 20" fill="none" xmlns="http://www.w3.org/2000/svg">
<mask id="mask0_1_931" style="mask-type:luminance" maskUnits="userSpaceOnUse" x="0" y="0" width="19" height="20">
<path fill-rule="evenodd" clip-rule="evenodd" d="M0.5 0H18.5V20H0.5V0Z" fill="white"/>
</mask>
<g mask="url(#mask0_1_931)">
<path fill-rule="evenodd" clip-rule="evenodd" d="M15.5378 10.6281C15.551 9.06917 16.453 7.63224 17.9253 6.81927C16.9968 5.61232 15.4991 4.87036 13.8798 4.81936C12.1522 4.65937 10.5638 5.72932 9.64419 5.72932C8.72898 5.72932 7.43354 4.83936 5.99551 4.85836C4.08772 4.91736 2.35126 5.87831 1.42278 7.39025C-0.523695 10.4481 0.92207 14.9989 2.86965 17.4678C3.75502 18.6787 4.86034 20.0497 6.31937 19.9987C7.7784 19.9477 8.25369 19.1787 9.94263 19.1787C11.6349 19.1787 12.1522 19.9987 13.5902 19.9677C15.0282 19.9407 16.0473 18.7297 16.9758 17.5188C17.6324 16.6398 18.1452 15.6789 18.5001 14.6709C16.7083 13.98 15.5422 12.39 15.5378 10.6281ZM12.7525 3.19037C13.5948 2.30841 14.0181 1.15946 13.9231 -0.000488281C12.6409 0.0935076 11.4493 0.640483 10.6071 1.51944C9.79135 2.37041 9.39343 3.48736 9.50175 4.60831C10.7718 4.62031 11.971 4.09333 12.7525 3.19037Z" fill="#121212"/>
</g>
</svg>
