<svg width="34" height="27" viewBox="0 0 34 27" fill="none" xmlns="http://www.w3.org/2000/svg">
<path d="M28.6665 19.75V23.3333C28.6665 25.1667 27.1665 26.6667 25.3332 26.6667L8.6665 26.6667C6.83317 26.6667 5.33317 25.1667 5.33317 23.3333V19.7333C7.2665 19.05 8.6665 17.2167 8.6665 15.05L8.6665 11.6667L25.3332 11.6667V15.0667C25.3332 17.2167 26.7332 19.0667 28.6665 19.75ZM3.6665 18.3333C5.49984 18.3333 6.99984 16.8333 6.99984 15L6.99984 10L26.9998 10V15C26.9998 15.8841 27.351 16.7319 27.9761 17.357C28.6013 17.9821 29.4491 18.3333 30.3332 18.3333C31.2172 18.3333 32.0651 17.9821 32.6902 17.357C33.3153 16.7319 33.6665 15.8841 33.6665 15V6.66667C33.6665 4.83334 32.1665 3.33334 30.3332 3.33334V5.72205e-06H26.9998V3.33334L6.99984 3.33334V5.72205e-06H3.6665V3.33334C1.83317 3.33334 0.333172 4.83334 0.333172 6.66667V15C0.333172 16.8333 1.83317 18.3333 3.6665 18.3333Z" fill="#1C31A5"/>
</svg>
