<svg width="136" height="34" viewBox="0 0 136 34" fill="none" xmlns="http://www.w3.org/2000/svg">
<path d="M0.333333 16.5C0.333333 17.9728 1.52724 19.1667 3 19.1667C4.47276 19.1667 5.66667 17.9728 5.66667 16.5C5.66667 15.0272 4.47276 13.8333 3 13.8333C1.52724 13.8333 0.333333 15.0272 0.333333 16.5ZM43 17C43.2761 17 43.5 16.7761 43.5 16.5C43.5 16.2239 43.2761 16 43 16V17ZM3 17H43V16H3V17Z" fill="#121212"/>
<path d="M93 16C92.7239 16 92.5 16.2239 92.5 16.5C92.5 16.7761 92.7239 17 93 17V16ZM130.333 16.5C130.333 17.9728 131.527 19.1667 133 19.1667C134.473 19.1667 135.667 17.9728 135.667 16.5C135.667 15.0272 134.473 13.8333 133 13.8333C131.527 13.8333 130.333 15.0272 130.333 16.5ZM93 17H133V16H93V17Z" fill="#121212"/>
<circle cx="68" cy="17" r="17" fill="#FF6F6C"/>
<path d="M70.8402 24.8156L64.977 26.3867C61.548 27.3055 59.6864 25.2264 59.086 22.9855L56.9895 15.1615C56.094 11.8194 57.0486 10.166 60.3907 9.27046L66.2539 7.69943C69.596 6.80392 71.2494 7.75851 72.1449 11.1006L74.2414 18.9246C75.1369 22.2667 74.1823 23.9201 70.8402 24.8156ZM60.7841 10.7387C58.2631 11.4142 57.7822 12.247 58.4578 14.7681L60.5542 22.5921C60.8725 23.7802 61.8211 25.6587 64.5836 24.9185L70.4468 23.3474C72.9678 22.6719 73.4487 21.8391 72.7732 19.318L70.6767 11.494C70.0012 8.97295 69.1684 8.49212 66.6473 9.16764L60.7841 10.7387Z" fill="white"/>
<path d="M77.7591 20.1147C77.3437 20.226 76.7762 20.2331 76.0538 19.9711L72.9908 18.8559C72.7614 18.7724 72.586 18.5813 72.5213 18.3398L70.9476 12.467C70.8829 12.2255 70.9393 11.9723 71.0963 11.7853L73.1913 9.288C74.1259 8.17828 75.0284 8.18493 75.4788 8.28166C75.9317 8.38805 76.7554 8.75745 77.1307 10.158L79.0279 17.2383C79.4031 18.6389 78.8771 19.3803 78.5354 19.6892C78.3804 19.8447 78.1165 20.0189 77.7591 20.1147ZM73.8763 17.5627L76.5707 18.5386C77.0856 18.7215 77.4024 18.6677 77.5099 18.5664C77.627 18.4626 77.6994 18.1533 77.5596 17.6317L75.6651 10.5611C75.5227 10.0299 75.2983 9.81046 75.1546 9.77649C75.0109 9.74252 74.7096 9.85432 74.3552 10.2702L72.5097 12.4626L73.8763 17.5627Z" fill="white"/>
<path d="M67.1493 16.3732C65.9516 16.6941 64.7146 15.98 64.3936 14.7822C64.0727 13.5845 64.7869 12.3475 65.9846 12.0265C67.1824 11.7056 68.4194 12.4198 68.7403 13.6175C69.0612 14.8153 68.347 16.0523 67.1493 16.3732ZM66.3728 13.4754C65.9768 13.5815 65.7364 13.998 65.8425 14.394C65.9486 14.79 66.365 15.0304 66.7611 14.9243C67.1571 14.8182 67.3975 14.4018 67.2914 14.0058C67.1853 13.6097 66.7689 13.3693 66.3728 13.4754Z" fill="white"/>
</svg>
