<svg width="25" height="24" viewBox="0 0 25 24" fill="none" xmlns="http://www.w3.org/2000/svg">
<path d="M22.3333 10.75C22.7433 10.75 23.0833 10.41 23.0833 10V9C23.0833 4.59 21.7433 3.25 17.3333 3.25H11.0833V5.5C11.0833 5.91 10.7433 6.25 10.3333 6.25C9.92325 6.25 9.58325 5.91 9.58325 5.5V3.25H7.33325C2.92325 3.25 1.58325 4.59 1.58325 9V9.5C1.58325 9.91 1.92325 10.25 2.33325 10.25C3.29325 10.25 4.08325 11.04 4.08325 12C4.08325 12.96 3.29325 13.75 2.33325 13.75C1.92325 13.75 1.58325 14.09 1.58325 14.5V15C1.58325 19.41 2.92325 20.75 7.33325 20.75H9.58325V18.5C9.58325 18.09 9.92325 17.75 10.3333 17.75C10.7433 17.75 11.0833 18.09 11.0833 18.5V20.75H17.3333C21.7433 20.75 23.0833 19.41 23.0833 15C23.0833 14.59 22.7433 14.25 22.3333 14.25C21.3733 14.25 20.5833 13.46 20.5833 12.5C20.5833 11.54 21.3733 10.75 22.3333 10.75ZM11.0833 14.17C11.0833 14.58 10.7433 14.92 10.3333 14.92C9.92325 14.92 9.58325 14.58 9.58325 14.17V9.83C9.58325 9.42 9.92325 9.08 10.3333 9.08C10.7433 9.08 11.0833 9.42 11.0833 9.83V14.17Z" fill="#FF6F6C"/>
</svg>
