<svg width="31" height="31" viewBox="0 0 31 31" fill="none" xmlns="http://www.w3.org/2000/svg">
<path d="M21.6103 0.916626H9.38942C4.08109 0.916626 0.916504 4.08121 0.916504 9.38954V21.5958C0.916504 26.9187 4.08109 30.0833 9.38942 30.0833H21.5957C26.904 30.0833 30.0686 26.9187 30.0686 21.6104V9.38954C30.0832 4.08121 26.9186 0.916626 21.6103 0.916626ZM24.2498 16.5937H9.38942L13.779 20.9833C14.2019 21.4062 14.2019 22.1062 13.779 22.5291C13.5603 22.7479 13.2832 22.85 13.0061 22.85C12.729 22.85 12.4519 22.7479 12.2332 22.5291L5.97692 16.2729C5.77275 16.0687 5.65609 15.7916 5.65609 15.5C5.65609 15.2083 5.77275 14.9312 5.97692 14.727L12.2332 8.47079C12.6561 8.04788 13.3561 8.04788 13.779 8.47079C14.2019 8.89371 14.2019 9.59371 13.779 10.0166L9.38942 14.4062H24.2498C24.8478 14.4062 25.3436 14.902 25.3436 15.5C25.3436 16.0979 24.8478 16.5937 24.2498 16.5937Z" fill="white"/>
</svg>
