<svg width="20" height="20" viewBox="0 0 20 20" fill="none" xmlns="http://www.w3.org/2000/svg">
<mask id="mask0_1_919" style="mask-type:luminance" maskUnits="userSpaceOnUse" x="0" y="5" width="5" height="10">
<path fill-rule="evenodd" clip-rule="evenodd" d="M-9.15527e-05 5.40117H4.43228V14.7389H-9.15527e-05V5.40117Z" fill="white"/>
</mask>
<g mask="url(#mask0_1_919)">
<path fill-rule="evenodd" clip-rule="evenodd" d="M4.43229 12.0862L3.73616 14.6852L1.19163 14.7389C0.431276 13.3286 -9.15527e-05 11.7148 -9.15527e-05 10C-9.15527e-05 8.34183 0.40319 6.77797 1.11807 5.40117H1.11854L3.38385 5.81633L4.37628 8.06808C4.16862 8.67371 4.05538 9.32359 4.05538 10C4.05538 10.7341 4.18846 11.4374 4.43229 12.0862Z" fill="#FF8482"/>
</g>
<mask id="mask1_1_919" style="mask-type:luminance" maskUnits="userSpaceOnUse" x="10" y="8" width="10" height="10">
<path fill-rule="evenodd" clip-rule="evenodd" d="M10.2198 8.13185H19.9999V17.7983H10.2198V8.13185Z" fill="white"/>
</mask>
<g mask="url(#mask1_1_919)">
<path fill-rule="evenodd" clip-rule="evenodd" d="M19.8252 8.13185C19.9401 8.73669 19.9999 9.36154 19.9999 9.99998C19.9999 10.7159 19.9247 11.4143 19.7813 12.0878C19.2945 14.3802 18.0226 16.3818 16.2604 17.7983L16.2599 17.7978L13.4066 17.6523L13.0027 15.1313C14.172 14.4456 15.0857 13.3725 15.5671 12.0878H10.2198V8.13185H19.8252Z" fill="#518EF8"/>
</g>
<path fill-rule="evenodd" clip-rule="evenodd" d="M16.2597 17.7978L16.2602 17.7983C14.5465 19.1759 12.3695 20 9.99978 20C6.1915 20 2.88048 17.8714 1.1915 14.7391L4.43216 12.0863C5.27673 14.34 7.45079 15.9445 9.99978 15.9445C11.0954 15.9445 12.1218 15.6484 13.0026 15.1314L16.2597 17.7978Z" fill="#28B446"/>
<path fill-rule="evenodd" clip-rule="evenodd" d="M16.3828 2.30227L13.1433 4.95437C12.2318 4.38461 11.1542 4.05547 9.99991 4.05547C7.39327 4.05547 5.17838 5.73348 4.37628 8.06809L1.11854 5.40117H1.11807C2.78233 2.19223 6.13503 0 9.99991 0C12.4262 0 14.6509 0.864258 16.3828 2.30227Z" fill="#F14336"/>
</svg>
