<svg width="23" height="20" viewBox="0 0 23 20" fill="none" xmlns="http://www.w3.org/2000/svg">
<path d="M11.6667 19.65C11.3567 19.65 11.0567 19.61 10.8067 19.52C6.98675 18.21 0.916748 13.56 0.916748 6.68998C0.916748 3.18998 3.74675 0.349976 7.22675 0.349976C8.91675 0.349976 10.4967 1.00998 11.6667 2.18998C12.8367 1.00998 14.4167 0.349976 16.1067 0.349976C19.5867 0.349976 22.4167 3.19998 22.4167 6.68998C22.4167 13.57 16.3467 18.21 12.5267 19.52C12.2767 19.61 11.9767 19.65 11.6667 19.65ZM7.22675 1.84998C4.57675 1.84998 2.41675 4.01998 2.41675 6.68998C2.41675 13.52 8.98675 17.32 11.2967 18.11C11.4767 18.17 11.8667 18.17 12.0467 18.11C14.3467 17.32 20.9267 13.53 20.9267 6.68998C20.9267 4.01998 18.7667 1.84998 16.1167 1.84998C14.5967 1.84998 13.1867 2.55998 12.2767 3.78998C11.9967 4.16998 11.3567 4.16998 11.0767 3.78998C10.1467 2.54998 8.74675 1.84998 7.22675 1.84998Z" fill="#757575"/>
</svg>
