<svg width="25" height="14" viewBox="0 0 25 14" fill="none" xmlns="http://www.w3.org/2000/svg">
<g clip-path="url(#clip0_1_1577)">
<path d="M23.4375 0.5H1.5625C0.699555 0.5 0 1.22754 0 2.125V11.875C0 12.7725 0.699555 13.5 1.5625 13.5H23.4375C24.3004 13.5 25 12.7725 25 11.875V2.125C25 1.22754 24.3004 0.5 23.4375 0.5Z" fill="#F5C518"/>
<path d="M3.125 10.6562H5.07812V3.34375H3.125V10.6562Z" fill="black"/>
<path d="M9.24708 3.34375L8.80995 6.75969L8.53836 4.90173C8.45961 4.3066 8.38408 3.78727 8.31176 3.34375H5.85938V10.6562H7.51626L7.52269 5.82748L8.22016 10.6562H9.39975L10.0619 5.72104L10.0667 10.6562H11.7188V3.34375H9.24708Z" fill="black"/>
<path d="M12.5 10.6562V3.34375H15.5487C16.238 3.34375 16.7969 3.9206 16.7969 4.63425V9.36575C16.7969 10.0785 16.2389 10.6562 15.5487 10.6562H12.5ZM14.7782 4.65981C14.7008 4.61626 14.5525 4.59529 14.337 4.59529V9.39342C14.6216 9.39342 14.7967 9.34019 14.8624 9.22891C14.9281 9.11924 14.9618 8.82248 14.9618 8.33541V5.50008C14.9618 5.16946 14.95 4.95818 14.9281 4.86463C14.9062 4.77109 14.8574 4.70335 14.7782 4.65981Z" fill="black"/>
<path d="M20.4804 5.17466H20.6053C21.3065 5.17466 21.875 5.74577 21.875 6.44948V9.38143C21.875 10.0855 21.3067 10.6562 20.6053 10.6562H20.4804C20.0514 10.6562 19.672 10.4424 19.4421 10.1152L19.3296 10.5623H17.5781V3.34375H19.447V5.69209C19.6885 5.37913 20.0606 5.17466 20.4804 5.17466ZM20.0803 8.74046V7.00775C20.0803 6.72145 20.0626 6.53357 20.0258 6.44708C19.989 6.36059 19.842 6.30507 19.7389 6.30507C19.6358 6.30507 19.4769 6.35019 19.4459 6.42624V9.35929C19.4813 9.44279 19.6329 9.48926 19.7389 9.48926C19.845 9.48926 19.9993 9.44428 20.0317 9.35929C20.0641 9.27429 20.0803 9.06702 20.0803 8.74046Z" fill="black"/>
</g>
<defs>
<clipPath id="clip0_1_1577">
<rect width="25" height="13" fill="white" transform="translate(0 0.5)"/>
</clipPath>
</defs>
</svg>
