<svg width="34" height="31" viewBox="0 0 34 31" fill="none" xmlns="http://www.w3.org/2000/svg">
<path d="M5.33317 22V25.3333C5.33317 28.0833 7.58317 30.3333 10.3332 30.3333L23.6665 30.3333C26.4165 30.3333 28.6665 28.0833 28.6665 25.3333V22C31.4165 22 33.6665 19.75 33.6665 17V8.66666C33.6665 5.91666 31.4165 3.66666 28.6665 3.66666V0.333328H25.3332V3.66666L8.6665 3.66666V0.333328H5.33317V3.66666C2.58317 3.66666 0.333168 5.91666 0.333168 8.66666V17C0.333168 19.75 2.58317 22 5.33317 22ZM25.3332 25.3333C25.3332 26.25 24.5832 27 23.6665 27L10.3332 27C9.4165 27 8.6665 26.25 8.6665 25.3333V20.7C9.68317 19.7833 10.3332 18.4667 10.3332 17L10.3332 13.6667L23.6665 13.6667V17C23.6665 18.4667 24.3165 19.7833 25.3332 20.7V25.3333ZM3.6665 8.66666C3.6665 7.75 4.4165 7 5.33317 7L28.6665 7C29.5832 7 30.3332 7.75 30.3332 8.66666L30.3332 17C30.3332 17.9167 29.5832 18.6667 28.6665 18.6667C27.7498 18.6667 26.9998 17.9167 26.9998 17L26.9998 10.3333L6.99984 10.3333L6.99984 17C6.99984 17.9167 6.24984 18.6667 5.33317 18.6667C4.4165 18.6667 3.6665 17.9167 3.6665 17L3.6665 8.66666Z" fill="#757575"/>
</svg>
