<svg width="130" height="130" viewBox="0 0 130 130" fill="none" xmlns="http://www.w3.org/2000/svg">
<circle cx="65" cy="65" r="65" fill="#FF8482" fill-opacity="0.2"/>
<circle cx="65" cy="65" r="45" fill="#FF8482"/>
<path d="M65 48.3333C55.8167 48.3333 48.3334 55.8167 48.3334 65C48.3334 74.1833 55.8167 81.6667 65 81.6667C74.1834 81.6667 81.6667 74.1833 81.6667 65C81.6667 55.8167 74.1834 48.3333 65 48.3333ZM72.9667 61.1667L63.5167 70.6167C63.2834 70.85 62.9667 70.9833 62.6334 70.9833C62.3 70.9833 61.9834 70.85 61.75 70.6167L57.0334 65.9C56.55 65.4167 56.55 64.6167 57.0334 64.1333C57.5167 63.65 58.3167 63.65 58.8 64.1333L62.6334 67.9667L71.2 59.4C71.6834 58.9167 72.4834 58.9167 72.9667 59.4C73.45 59.8833 73.45 60.6667 72.9667 61.1667Z" fill="white"/>
</svg>
