<svg width="25" height="24" viewBox="0 0 25 24" fill="none" xmlns="http://www.w3.org/2000/svg">
<path d="M17.3333 20.75H7.33325C2.92325 20.75 1.58325 19.41 1.58325 15V14.5C1.58325 14.09 1.92325 13.75 2.33325 13.75C3.29325 13.75 4.08325 12.96 4.08325 12C4.08325 11.04 3.29325 10.25 2.33325 10.25C1.92325 10.25 1.58325 9.91 1.58325 9.5V9C1.58325 4.59 2.92325 3.25 7.33325 3.25H17.3333C21.7433 3.25 23.0833 4.59 23.0833 9V10C23.0833 10.41 22.7433 10.75 22.3333 10.75C21.3733 10.75 20.5833 11.54 20.5833 12.5C20.5833 13.46 21.3733 14.25 22.3333 14.25C22.7433 14.25 23.0833 14.59 23.0833 15C23.0833 19.41 21.7433 20.75 17.3333 20.75ZM3.08325 15.16C3.10325 18.6 3.81325 19.25 7.33325 19.25H17.3333C20.6733 19.25 21.4833 18.66 21.5733 15.66C20.1433 15.32 19.0833 14.03 19.0833 12.5C19.0833 10.97 20.1533 9.68 21.5833 9.34V9C21.5833 5.43 20.9133 4.75 17.3333 4.75H7.33325C3.81325 4.75 3.10325 5.4 3.08325 8.84C4.51325 9.18 5.58325 10.47 5.58325 12C5.58325 13.53 4.51325 14.82 3.08325 15.16Z" fill="#757575"/>
<path d="M10.3333 7.25C9.92325 7.25 9.58325 6.91 9.58325 6.5V4C9.58325 3.59 9.92325 3.25 10.3333 3.25C10.7433 3.25 11.0833 3.59 11.0833 4V6.5C11.0833 6.91 10.7433 7.25 10.3333 7.25Z" fill="#757575"/>
<path d="M10.3333 14.58C9.92325 14.58 9.58325 14.24 9.58325 13.83V10.16C9.58325 9.74997 9.92325 9.40997 10.3333 9.40997C10.7433 9.40997 11.0833 9.74997 11.0833 10.16V13.83C11.0833 14.25 10.7433 14.58 10.3333 14.58Z" fill="#757575"/>
<path d="M10.3333 20.75C9.92325 20.75 9.58325 20.41 9.58325 20V17.5C9.58325 17.09 9.92325 16.75 10.3333 16.75C10.7433 16.75 11.0833 17.09 11.0833 17.5V20C11.0833 20.41 10.7433 20.75 10.3333 20.75Z" fill="#757575"/>
</svg>
